<?xml version="1.0" encoding="utf-8"?>
<!-- Generator: Adobe Illustrator 16.0.4, SVG Export Plug-In . SVG Version: 6.00 Build 0)  -->
<!DOCTYPE svg PUBLIC "-//W3C//DTD SVG 1.1//EN" "http://www.w3.org/Graphics/SVG/1.1/DTD/svg11.dtd">
<svg version="1.1" id="Layer_1" xmlns="http://www.w3.org/2000/svg" xmlns:xlink="http://www.w3.org/1999/xlink" x="0px" y="0px"
	 width="512px" height="512px" viewBox="0 0 512 512" enable-background="new 0 0 512 512" xml:space="preserve">
<path fill="#80BE42" d="M255.032,462c-5.668,0-11.198-1.383-15.485-4.286l-50.605-29.59c-7.053-4.285-4.287-5.669-1.383-7.051
	c9.816-2.765,12.722-4.287,22.537-9.818c1.384,0,2.766,0,4.286,0l39.406,22.539c1.382,1.383,2.765,1.383,4.286,0l151.816-87.247
	c1.383-1.382,2.768-2.766,2.768-4.285V169.566c0-1.382-1.385-2.765-2.768-4.286L258.074,78.034c-1.382-1.383-2.765-1.383-4.286,0
	L101.971,165.28c-1.383,1.383-2.766,2.765-2.766,4.286v174.355c0,1.382,1.383,2.765,2.766,4.285l40.788,23.92
	c22.537,11.2,36.503-1.382,36.503-15.486v-172.97c0-2.765,1.383-4.286,4.286-4.286h19.634c2.766,0,4.286,1.383,4.286,4.286v172.97
	c0,29.591-16.867,47.842-44.938,47.842c-8.434,0-15.484,0-35.118-9.817l-39.406-22.538c-9.817-5.668-15.486-16.868-15.486-28.067
	V169.566c0-11.199,5.669-22.537,15.486-28.068l151.816-87.246c9.816-5.669,22.537-5.669,32.354,0l151.818,87.246
	c9.816,5.669,15.484,16.869,15.484,28.068v174.355c0,11.198-5.668,22.537-15.484,28.067l-151.818,87.246
	C264.849,460.617,260.701,462,255.032,462z"/>
<path fill="#80BE42" d="M301.49,342.538c-66.092,0-80.195-30.972-80.195-56.274c0-2.766,1.383-4.288,4.287-4.288h19.634
	c2.766,0,4.285,1.384,4.285,4.288c2.767,19.634,11.2,29.588,51.989,29.588c32.355,0,44.938-7.051,44.938-23.92
	c0-9.816-4.287-16.869-53.371-22.537c-40.789-4.286-67.475-12.721-67.475-46.457c0-30.972,25.303-49.224,68.857-49.224
	c47.84,0,73.143,16.869,75.908,53.371c0,1.383,0,2.766-1.383,2.766c-1.383,1.383-1.383,1.383-2.766,1.383h-19.633
	c-1.383,0-4.287-1.383-4.287-2.766c-4.285-21.156-15.486-28.068-47.84-28.068c-35.121,0-39.407,12.721-39.407,21.155
	c0,11.199,4.286,14.103,51.987,21.155c46.459,5.668,68.859,15.485,68.859,47.839C376.015,322.904,349.332,342.538,301.49,342.538z"
	/>
</svg>
